# xmcd
#
# Track frame offsets:
#	150
#	15609
#	29751
#	45680
#	58160
#	74811
#	92568
#	109649
#	119839
#	139010
#	155273
#	173496
#	192669
#	208434
#	225603
#	237041
#	249912
#	265887
#	278125
#	293565
#	303481
#	317200
#
# Disc length: 4439 seconds
#
# Revision: 0
# Processed by: cddbd v1.5.2PL0 Copyright (c) Steve Scherf et al.
# Submitted via: EasyCDDAExtractor 10.5.1.1
#
DISCID=4a115516
DTITLE=Racyne and Rafael - Ao Vivo
DYEAR=1900
DGENRE=
TTITLE0=Me da seu coracao
TTITLE1=Do outro lado da cidade
TTITLE2=Quando voce me telefona
TTITLE3=Vestido de seda
TTITLE4=Mulher bandida
TTITLE5=Tudo de novo
TTITLE6=Fuscao preto
TTITLE7=Toca sanfoneiro
TTITLE8=Sublime renuncia/Explosao de desejos/ Contradicoes
TTITLE9=Nao tente me impedir
TTITLE10=Parabens pro nosso amor
TTITLE11=Amor e paixao
TTITLE12=Se voce ama perdoa
TTITLE13=Canarinho prisioneiro
TTITLE14=Cai na real
TTITLE15=Fusquinha
TTITLE16=Foi o Beijo
TTITLE17=Comecar outra vez
TTITLE18=Solidao e uma resseca
TTITLE19=Fuxiqueiro
TTITLE20=A loira nao e burra
TTITLE21=O sonho nao acabou
EXTD=
EXTT0=
EXTT1=
EXTT2=
EXTT3=
EXTT4=
EXTT5=
EXTT6=
EXTT7=
EXTT8=
EXTT9=
EXTT10=
EXTT11=
EXTT12=
EXTT13=
EXTT14=
EXTT15=
EXTT16=
EXTT17=
EXTT18=
EXTT19=
EXTT20=
EXTT21=
PLAYORDER=
